<svg width="189" height="50" viewBox="0 0 189 50" fill="none" xmlns="http://www.w3.org/2000/svg">
<path d="M12.9158 50C9.63042 50 6.89975 49.3173 4.72375 47.952C2.59042 46.544 1.31042 44.6453 0.883754 42.256C0.713087 41.3173 0.819753 40.464 1.20375 39.696C1.58775 38.928 2.27042 38.4587 3.25175 38.288C4.06242 38.1173 4.91575 38.1813 5.81175 38.48C6.75042 38.7787 7.32642 39.4827 7.53975 40.592C7.71042 41.3173 8.37175 41.936 9.52375 42.448C10.7184 42.9173 12.2758 43.152 14.1958 43.152C16.1158 43.152 17.8224 42.7893 19.3158 42.064C20.8091 41.296 21.9824 40.272 22.8358 38.992C23.7318 37.712 24.1798 36.2827 24.1798 34.704C24.1798 33.7227 23.9664 32.848 23.5398 32.08C23.1131 31.312 22.3664 30.48 21.2998 29.584C20.2331 28.688 18.7611 27.5573 16.8838 26.192C15.8598 25.4667 14.7078 24.6987 13.4278 23.888C12.1904 23.0773 10.9958 22.1813 9.84375 21.2C8.69175 20.176 7.73175 19.0027 6.96375 17.68C6.23842 16.3147 5.87575 14.736 5.87575 12.944C5.87575 8.848 7.49709 5.776 10.7398 3.728C13.9824 1.63733 18.8251 0.591999 25.2678 0.591999C28.2971 0.591999 30.7291 1.18933 32.5638 2.384C34.3984 3.57867 35.5718 5.56267 36.0838 8.336C36.2544 9.232 36.1478 10.0427 35.7638 10.768C35.4224 11.4933 34.7824 12.0267 33.8438 12.368C33.0331 12.5813 32.1584 12.5387 31.2198 12.24C30.2811 11.8987 29.7051 11.152 29.4918 10C29.3211 9.14666 28.7878 8.50666 27.8918 8.08C27.0384 7.65333 25.7798 7.44 24.1158 7.44C20.4891 7.44 17.7584 7.90933 15.9238 8.848C14.1318 9.744 13.2358 11.1093 13.2358 12.944C13.2358 13.712 13.6838 14.544 14.5798 15.44C15.5184 16.2933 16.6491 17.168 17.9718 18.064C19.3371 18.9173 20.6598 19.8133 21.9398 20.752C24.5424 22.5867 26.5264 24.2293 27.8918 25.68C29.2571 27.088 30.1744 28.4533 30.6438 29.776C31.1558 31.056 31.4118 32.4213 31.4118 33.872C31.4118 36.944 30.6011 39.696 28.9798 42.128C27.3584 44.56 25.1611 46.48 22.3878 47.888C19.6144 49.296 16.4571 50 12.9158 50ZM41.4243 50C40.2296 50 39.2909 49.6587 38.6083 48.976C37.9256 48.2507 37.6696 47.3547 37.8403 46.288L45.3283 3.728C45.5416 2.61867 46.0749 1.82933 46.9283 1.36C47.7816 0.847998 48.7203 0.591999 49.7443 0.591999C50.8536 0.591999 51.6856 0.933332 52.2403 1.616C52.8376 2.256 53.0296 3.25866 52.8163 4.624L45.4563 46.928C45.3709 47.696 45.0083 48.4 44.3683 49.04C43.7283 49.68 42.7469 50 41.4243 50ZM44.9443 28.56L45.9683 21.712H71.3123L70.2243 28.56H44.9443ZM66.7683 50C65.5309 50 64.5923 49.6587 63.9523 48.976C63.3549 48.2507 63.1416 47.3547 63.3123 46.288L70.8003 3.408C70.9283 2.55466 71.3549 1.872 72.0803 1.36C72.8483 0.847998 73.7656 0.591999 74.8323 0.591999C76.0269 0.591999 76.9443 0.933332 77.5843 1.616C78.2669 2.256 78.5016 3.19466 78.2883 4.432L70.8643 47.184C70.6936 47.952 70.2456 48.6133 69.5203 49.168C68.7949 49.7227 67.8776 50 66.7683 50ZM80.3443 50C79.1923 50 78.2536 49.5733 77.5282 48.72C76.8029 47.8667 76.8029 46.7787 77.5282 45.456L99.5443 3.152C99.9283 2.42666 100.504 1.82933 101.272 1.36C102.083 0.847998 103.107 0.591999 104.344 0.591999C105.539 0.591999 106.52 0.890666 107.288 1.488C108.056 2.08533 108.504 2.98133 108.632 4.176L112.28 46.48C112.366 47.6747 112.067 48.5707 111.384 49.168C110.744 49.7227 109.891 50 108.824 50C107.63 50 106.734 49.7227 106.136 49.168C105.539 48.6133 105.198 47.8667 105.112 46.928L102.488 15.952L102.744 10.256L100.568 15.888L84.5043 47.504C83.9923 48.4427 83.4163 49.104 82.7763 49.488C82.1789 49.8293 81.3683 50 80.3443 50ZM88.2163 31.44L91.4803 24.592H106.52L107.16 31.44H88.2163ZM147.105 50C146.423 50 145.74 49.8293 145.057 49.488C144.375 49.1467 143.82 48.6773 143.393 48.08L126.817 24.208L126.881 21.968L151.329 2C151.927 1.53066 152.567 1.18933 153.249 0.975998C153.975 0.719999 154.636 0.591999 155.233 0.591999C156.343 0.591999 157.175 0.890666 157.729 1.488C158.327 2.08533 158.625 2.768 158.625 3.536C158.625 4.21866 158.433 4.85866 158.049 5.456C157.708 6.01066 157.26 6.52266 156.705 6.992L133.921 25.616L134.561 21.84L149.793 43.536C150.049 43.92 150.263 44.368 150.433 44.88C150.604 45.392 150.689 45.904 150.689 46.416C150.689 47.3547 150.348 48.1867 149.665 48.912C148.983 49.6373 148.129 50 147.105 50ZM121.761 50C120.567 50 119.607 49.5947 118.881 48.784C118.199 47.9733 117.943 47.0133 118.113 45.904L125.601 3.728C125.815 2.61867 126.327 1.82933 127.137 1.36C127.948 0.847998 128.823 0.591999 129.761 0.591999C130.7 0.591999 131.553 0.890666 132.321 1.488C133.132 2.08533 133.409 3.13066 133.153 4.624L125.665 46.608C125.495 47.5467 125.089 48.3573 124.449 49.04C123.809 49.68 122.913 50 121.761 50ZM156.739 50C155.587 50 154.649 49.5733 153.923 48.72C153.198 47.8667 153.198 46.7787 153.923 45.456L175.939 3.152C176.323 2.42666 176.899 1.82933 177.667 1.36C178.478 0.847998 179.502 0.591999 180.739 0.591999C181.934 0.591999 182.915 0.890666 183.683 1.488C184.451 2.08533 184.899 2.98133 185.027 4.176L188.675 46.48C188.761 47.6747 188.462 48.5707 187.779 49.168C187.139 49.7227 186.286 50 185.219 50C184.025 50 183.129 49.7227 182.531 49.168C181.934 48.6133 181.593 47.8667 181.507 46.928L178.883 15.952L179.139 10.256L176.963 15.888L160.899 47.504C160.387 48.4427 159.811 49.104 159.171 49.488C158.574 49.8293 157.763 50 156.739 50ZM164.611 31.44L167.875 24.592H182.915L183.555 31.44H164.611Z" fill="#2E58FF"/>
</svg>
