<svg width="147" height="17" viewBox="0 0 147 17" fill="none" xmlns="http://www.w3.org/2000/svg">
<rect x="30" width="16" height="17" rx="5" fill="#D9D9D9"/>
<rect x="51" width="17" height="17" rx="5" fill="#9BAFFF"/>
<rect x="73" width="16" height="17" rx="5" fill="#2E58FF"/>
<rect x="94" width="17" height="17" rx="5" fill="#263238"/>
<path d="M2.98884 9.664H6.05284V9.128H3.62884V4.296H2.98884V9.664ZM8.33534 9.664H11.5433V9.128H8.96734V7.168H10.9353V6.632H8.96734V4.832H11.5193V4.296H8.33534V9.664ZM15.1772 9.76C16.4332 9.76 16.9772 9.136 16.9772 8.2C16.9772 7.296 16.4732 6.96 15.6812 6.688L15.1532 6.52C14.5452 6.312 14.3532 6.088 14.3532 5.576C14.3532 5.064 14.7212 4.744 15.3772 4.744C15.9692 4.744 16.3932 4.896 16.7052 5.04V4.504C16.4092 4.36 16.0332 4.208 15.4012 4.208C14.2812 4.208 13.7292 4.8 13.7292 5.632C13.7292 6.448 14.1532 6.832 14.9052 7.08L15.4252 7.264C16.0732 7.472 16.3372 7.696 16.3372 8.248C16.3372 8.832 15.9772 9.216 15.1532 9.216C14.5852 9.216 14.0572 9.072 13.6492 8.864V9.4C14.0092 9.6 14.5212 9.76 15.1772 9.76ZM20.5079 9.76C21.7639 9.76 22.3079 9.136 22.3079 8.2C22.3079 7.296 21.8039 6.96 21.0119 6.688L20.4839 6.52C19.8759 6.312 19.6839 6.088 19.6839 5.576C19.6839 5.064 20.0519 4.744 20.7079 4.744C21.2999 4.744 21.7239 4.896 22.0359 5.04V4.504C21.7399 4.36 21.3639 4.208 20.7319 4.208C19.6119 4.208 19.0599 4.8 19.0599 5.632C19.0599 6.448 19.4839 6.832 20.2359 7.08L20.7559 7.264C21.4039 7.472 21.6679 7.696 21.6679 8.248C21.6679 8.832 21.3079 9.216 20.4839 9.216C19.9159 9.216 19.3879 9.072 18.9799 8.864V9.4C19.3399 9.6 19.8519 9.76 20.5079 9.76Z" fill="black"/>
<path d="M119.809 9.664H120.401V5.128H120.425L121.977 9.664H122.569L124.137 5.128H124.161V9.664H124.801V4.296H123.865L122.321 8.832H122.305L120.753 4.296H119.809V9.664ZM129.516 9.752C130.988 9.752 131.876 8.736 131.876 7.048V6.92C131.876 5.16 130.988 4.208 129.54 4.208C128.06 4.208 127.172 5.224 127.172 6.912V7.04C127.172 8.8 128.06 9.752 129.516 9.752ZM129.532 9.232C128.332 9.232 127.852 8.336 127.852 7.04V6.792C127.852 5.592 128.404 4.728 129.508 4.728C130.724 4.736 131.196 5.616 131.196 6.92V7.168C131.196 8.36 130.644 9.232 129.532 9.232ZM134.244 9.664H134.876V7.36H135.9L137.236 9.664H137.956L136.532 7.248V7.208C137.196 7 137.58 6.568 137.58 5.8C137.58 4.832 136.988 4.296 135.804 4.296H134.244V9.664ZM134.876 6.864V4.832H135.756C136.58 4.832 136.908 5.144 136.908 5.808C136.908 6.504 136.604 6.864 135.764 6.864H134.876ZM140.176 9.664H143.384V9.128H140.808V7.168H142.776V6.632H140.808V4.832H143.36V4.296H140.176V9.664Z" fill="black"/>
</svg>
